<svg xmlns="http://www.w3.org/2000/svg" color-interpolation-filters="sRGB" style="margin:auto" version="1.0" viewBox="0 0 340 250">
  <g class="icon-text-wrapper icon-svg-group iconsvg">
    <g class="iconsvg-imagesvg" transform="translate(140 90.597)">
      <path fill="none" d="M0 0h60v38.447H0z" class="image-rect"/>
      <svg width="60" height="38.447" class="image-svg-svg primary" filter="url(#a)" style="overflow:visible">
        <svg xmlns="http://www.w3.org/2000/svg" data-name="Layer 102" viewBox="10 24.738 80 51.262">
          <path d="M90 29.18h-4.74a.75.75 0 0 1 .47.69V67.8a.67.67 0 0 1-.06.28v.06a1 1 0 0 1-.18.23l-3.79 3.09a.73.73 0 0 1-.47.17H18.78a.73.73 0 0 1-.47-.17l-3.77-3.08a.76.76 0 0 1-.18-.23v-.06a.67.67 0 0 1-.06-.28V29.87a.75.75 0 0 1 .47-.69H10V76h80Z"/>
          <path d="M49.25 65V28.72c-8.42-4.48-15-5.16-20.76-2.14-3.56 1.87-10.61 3.45-12.72 3.9v36.39c2.37-.51 8.83-2 12-3.68C33.83 60 40.68 60.56 49.25 65ZM72.21 63.19c3.19 1.67 9.65 3.17 12 3.68V30.48c-2.11-.45-9.16-2-12.72-3.9-5.73-3-12.34-2.34-20.76 2.14V65c5-2.54 9.32-3.8 13.29-3.8a17.2 17.2 0 0 1 8.19 1.99Z"/>
          <path d="M28.48 64.68c-3.14 1.57-9 2.94-11.77 3.54l2.34 1.91H81l2.33-1.91c-2.79-.6-8.63-2-11.77-3.54-5.83-3-12.55-2.23-21.17 2.25a.73.73 0 0 1-.7 0c-8.69-4.48-15.39-5.2-21.21-2.25Z"/>
        </svg>
      </svg>
      <defs>
        <filter id="a">
          <feColorMatrix class="icon-fecolormatrix" values="0 0 0 0 0 0 0 0 0 0 0 0 0 0 0 0 0 0 1 0"/>
        </filter>
      </defs>
    </g>
    <g class="tp-name iconsvg-namesvg" data-gra="path-name">
      <path d="M89.68 157.123c5.81 0 10.08-3.23 10.08-9.96 0-6.74-4.27-9.91-10.08-9.91h-9.46v4.06h1.75v11.57h-1.75v4.24Zm.03-15.81c2.79 0 5.01 1.67 5.01 5.85 0 4.15-2.22 5.9-5.01 5.9h-2.76v-11.75Zm11.59 8.1c0 5.19 3.24 7.98 7.98 7.98 2.7 0 4.63-.71 6.29-1.99l-1.1-3.71c-1.27.92-2.49 1.6-4.15 1.6-2.17 0-3.5-.94-3.94-2.58h9.93c.03-.44.06-1.21.06-1.66.09-4.5-2.28-7.56-7.18-7.56-4.53 0-7.89 2.76-7.89 7.92Zm4.96-1.19c.32-1.81 1.42-2.9 3.08-2.9 2.08 0 3.06 1.36 3.06 2.9Zm12.45-2.93v5.69c0 4.24 2.02 6.44 5.61 6.44 1.75 0 3.02-.74 3.97-1.84v1.54h6.49v-3.53h-1.75v-11.83h-6.49v3.53h1.75v6.37c-.47 1.07-1.25 1.96-2.4 1.96-1.66 0-2.43-1.16-2.43-3.85v-8.01h-6.5v3.53Zm16.46-3.53v3.5h2.28v5.25c0 4.83 1.96 6.94 5.19 6.94 1.16 0 2.46-.27 3.92-.8l-.54-4.19c-.8.33-1.54.54-2.16.54-.98 0-1.66-.59-1.66-2.37v-5.37h3.94v-3.5h-3.94v-4.39h-4.75v4.39Zm19.33-.27c-4.53 0-6.82 1.81-6.82 4.63 0 5.13 8.04 4.77 8.04 6.76 0 .95-.83 1.27-2.02 1.27-.71 0-1.42-.11-2.13-.26l-.21-2.11h-3.56v4.51c1.78.56 4.09 1.1 6.59 1.1 4.38 0 6.16-1.69 6.16-4.45 0-5.25-8.03-4.89-8.03-7.15 0-.83.95-1.18 2.34-1.18.56 0 1.1.06 1.6.17l.21 2.11h3.32v-4.3c-1.04-.5-3.08-1.1-5.49-1.1Zm15.22 0c-4.63 0-7.86 2.76-7.86 7.92 0 5.19 3.23 7.98 7.95 7.98 2.22 0 4.65-.71 6.31-1.99l-1.1-3.83c-1.27.92-2.93 1.61-4.62 1.61-2.11 0-3.68-1.34-3.68-3.83 0-2.37 1.48-3.71 3.47-3.8.33.03.65.09.95.18l.24 3h4.24v-6.2c-1.34-.56-3.89-1.04-5.9-1.04Zm7.5-5.37v3.53h1.75v13.94h-1.75v3.53h8.24v-3.53h-1.75v-6.37c.48-1.07 1.28-1.93 2.43-1.93 1.67 0 2.41 1.12 2.41 3.82v8.01h6.49v-3.53h-1.75v-5.66c0-4.27-1.99-6.47-5.57-6.47-1.78 0-3.06.77-4.01 1.84v-7.18Z"/>
      <path d="M198.04 147.133c0 6.73 4.1 10.14 9.46 10.14 1.75 0 3.33-.36 4.69-1.07l3.8 3.2 1.8-2.19-3.49-2.58c1.66-1.69 2.6-4.18 2.6-7.5 0-6.65-4.06-10.03-9.4-10.03-5.36 0-9.46 3.38-9.46 10.03Zm2.88 0c0-4.84 2.7-7.57 6.58-7.57 3.89 0 6.56 2.73 6.56 7.57 0 4.86-2.67 7.68-6.56 7.68-3.88 0-6.58-2.82-6.58-7.68Zm20.4-2.97v6.82c0 4.12 2.23 6.35 5.7 6.35 1.89 0 3.32-.86 4.3-2.05v1.84h4.95v-2.05h-2.28v-12.93h-4.96v2.02h2.29v7.59c-.57 1.66-1.81 3.38-3.71 3.38-2.34 0-3.62-1.57-3.62-4.77v-8.22h-4.92v2.02Zm16.64-2.04v2.04h2.31v10.91h-2.31v2.05h7.26v-2.05h-2.31v-12.95Zm1.13-4.3c0 1.27.92 1.8 2.31 1.8 1.39 0 2.28-.53 2.28-1.8 0-1.19-.89-1.78-2.28-1.78-1.39 0-2.31.59-2.31 1.78Zm20.69 19.3v-5.01h-1.92l-.48 2.96h-7.35l9.75-10.91v-2.04h-12.69v5.07h1.93l.5-3.03h7.15l-9.73 10.91v2.05Z" data-gra="path-name-1"/>
    </g>
  </g>
</svg>